# xmcd CD database file
#
# Track frame offsets:
#	150
#	29767
#	56133
#	78157
#	92706
#	117143
#	136189
#	170528
#	201074
#	232247
#	260070
#	285122
#
# Disc length: 4169 seconds
#
# Revision: 0
# Processed by: cddbd v1.5.1PL0 Copyright (c) Steve Scherf et al.
# Submitted via: CDex 1.51
#
DISCID=a610470c
DTITLE=North Sea Jazz - Best of Dutch Jazz
DYEAR=2005
DGENRE=Jazz
TTITLE0=Fatuh (Jamesz)
TTITLE1=Tierra Nueva (Jamesz)
TTITLE2=Shab Shub Ma Djo (Jamesh)
TTITLE3=De Koffer van Elif (On The Line)
TTITLE4=Radar (On The Line)
TTITLE5=No Hay Palabras (On The Line)
TTITLE6=The Song Within (Agog)
TTITLE7=Broken (Agog)
TTITLE8=Ventriloquist (Agog)
TTITLE9=Souvenir (As Guests)
TTITLE10='74 (As Guests)
TTITLE11=Chovendo Na Rosier
EXTD=YEAR: 2005
EXTT0=
EXTT1=
EXTT2=
EXTT3=
EXTT4=
EXTT5=
EXTT6=
EXTT7=
EXTT8=
EXTT9=
EXTT10=
EXTT11=
PLAYORDER=
